<svg width="111" height="42" viewBox="0 0 111 42" fill="none" xmlns="http://www.w3.org/2000/svg">
<path d="M1.032 29.684H2.196V38H1.032V29.684ZM23.6947 38C23.5187 37.704 23.3147 37.372 23.0827 37.004C22.8587 36.636 22.6147 36.256 22.3507 35.864C22.0867 35.464 21.8107 35.06 21.5227 34.652C21.2427 34.244 20.9627 33.852 20.6827 33.476C20.4027 33.092 20.1307 32.732 19.8667 32.396C19.6027 32.06 19.3587 31.764 19.1347 31.508V38H17.9947V29.684H18.9187C19.2947 30.084 19.6947 30.552 20.1187 31.088C20.5507 31.616 20.9747 32.164 21.3907 32.732C21.8147 33.292 22.2107 33.844 22.5787 34.388C22.9547 34.932 23.2707 35.416 23.5267 35.84V29.684H24.6667V38H23.6947ZM40.4651 38V29.684H45.4811V30.68H41.6291V33.188H45.0491V34.172H41.6291V38H40.4651ZM60.1621 33.836C60.1621 33.124 60.2661 32.496 60.4741 31.952C60.6901 31.408 60.9781 30.956 61.3381 30.596C61.7061 30.228 62.1301 29.952 62.6101 29.768C63.0981 29.584 63.6141 29.492 64.1581 29.492C64.6941 29.492 65.1981 29.584 65.6701 29.768C66.1501 29.952 66.5701 30.228 66.9301 30.596C67.2901 30.956 67.5741 31.408 67.7821 31.952C67.9981 32.496 68.1061 33.124 68.1061 33.836C68.1061 34.548 67.9981 35.176 67.7821 35.72C67.5741 36.264 67.2901 36.72 66.9301 37.088C66.5701 37.448 66.1501 37.72 65.6701 37.904C65.1981 38.088 64.6941 38.18 64.1581 38.18C63.6141 38.18 63.0981 38.088 62.6101 37.904C62.1301 37.72 61.7061 37.448 61.3381 37.088C60.9781 36.72 60.6901 36.264 60.4741 35.72C60.2661 35.176 60.1621 34.548 60.1621 33.836ZM61.3861 33.836C61.3861 34.34 61.4501 34.8 61.5781 35.216C61.7061 35.624 61.8861 35.972 62.1181 36.26C62.3581 36.548 62.6461 36.772 62.9821 36.932C63.3261 37.084 63.7101 37.16 64.1341 37.16C64.5581 37.16 64.9381 37.084 65.2741 36.932C65.6101 36.772 65.8941 36.548 66.1261 36.26C66.3661 35.972 66.5501 35.624 66.6781 35.216C66.8061 34.8 66.8701 34.34 66.8701 33.836C66.8701 33.332 66.8061 32.876 66.6781 32.468C66.5501 32.052 66.3661 31.7 66.1261 31.412C65.8941 31.124 65.6101 30.904 65.2741 30.752C64.9381 30.592 64.5581 30.512 64.1341 30.512C63.7101 30.512 63.3261 30.592 62.9821 30.752C62.6461 30.904 62.3581 31.124 62.1181 31.412C61.8861 31.7 61.7061 32.052 61.5781 32.468C61.4501 32.876 61.3861 33.332 61.3861 33.836Z" fill="white"/>
<path d="M7.92 21.28C5.66667 21.28 3.94667 20.6533 2.76 19.4C1.58667 18.1467 1 16.3667 1 14.06C1 12.9133 1.18 11.8933 1.54 11C1.9 10.0933 2.39333 9.33333 3.02 8.72C3.64667 8.09333 4.39333 7.62 5.26 7.3C6.12667 6.98 7.06667 6.82 8.08 6.82C8.66667 6.82 9.2 6.86667 9.68 6.96C10.16 7.04 10.58 7.14 10.94 7.26C11.3 7.36667 11.6 7.48 11.84 7.6C12.08 7.72 12.2533 7.81333 12.36 7.88L11.46 10.4C11.0333 10.1733 10.5333 9.98 9.96 9.82C9.4 9.66 8.76 9.58 8.04 9.58C7.56 9.58 7.08667 9.66 6.62 9.82C6.16667 9.98 5.76 10.24 5.4 10.6C5.05333 10.9467 4.77333 11.4 4.56 11.96C4.34667 12.52 4.24 13.2 4.24 14C4.24 14.64 4.30667 15.24 4.44 15.8C4.58667 16.3467 4.81333 16.82 5.12 17.22C5.44 17.62 5.85333 17.94 6.36 18.18C6.86667 18.4067 7.48 18.52 8.2 18.52C8.65333 18.52 9.06 18.4933 9.42 18.44C9.78 18.3867 10.1 18.3267 10.38 18.26C10.66 18.18 10.9067 18.0933 11.12 18C11.3333 17.9067 11.5267 17.82 11.7 17.74L12.56 20.24C12.12 20.5067 11.5 20.7467 10.7 20.96C9.9 21.1733 8.97333 21.28 7.92 21.28ZM16.6809 14.06C16.6809 14.74 16.7609 15.3533 16.9209 15.9C17.0943 16.4467 17.3343 16.92 17.6409 17.32C17.9609 17.7067 18.3476 18.0067 18.8009 18.22C19.2543 18.4333 19.7743 18.54 20.3609 18.54C20.9343 18.54 21.4476 18.4333 21.9009 18.22C22.3676 18.0067 22.7543 17.7067 23.0609 17.32C23.3809 16.92 23.6209 16.4467 23.7809 15.9C23.9543 15.3533 24.0409 14.74 24.0409 14.06C24.0409 13.38 23.9543 12.7667 23.7809 12.22C23.6209 11.66 23.3809 11.1867 23.0609 10.8C22.7543 10.4 22.3676 10.0933 21.9009 9.88C21.4476 9.66667 20.9343 9.56 20.3609 9.56C19.7743 9.56 19.2543 9.67333 18.8009 9.9C18.3476 10.1133 17.9609 10.42 17.6409 10.82C17.3343 11.2067 17.0943 11.68 16.9209 12.24C16.7609 12.7867 16.6809 13.3933 16.6809 14.06ZM27.2609 14.06C27.2609 15.2467 27.0809 16.2933 26.7209 17.2C26.3743 18.0933 25.8943 18.8467 25.2809 19.46C24.6676 20.06 23.9343 20.5133 23.0809 20.82C22.2409 21.1267 21.3343 21.28 20.3609 21.28C19.4143 21.28 18.5209 21.1267 17.6809 20.82C16.8409 20.5133 16.1076 20.06 15.4809 19.46C14.8543 18.8467 14.3609 18.0933 14.0009 17.2C13.6409 16.2933 13.4609 15.2467 13.4609 14.06C13.4609 12.8733 13.6476 11.8333 14.0209 10.94C14.3943 10.0333 14.8943 9.27333 15.5209 8.66C16.1609 8.04667 16.8943 7.58667 17.7209 7.28C18.5609 6.97333 19.4409 6.82 20.3609 6.82C21.3076 6.82 22.2009 6.97333 23.0409 7.28C23.8809 7.58667 24.6143 8.04667 25.2409 8.66C25.8676 9.27333 26.3609 10.0333 26.7209 10.94C27.0809 11.8333 27.2609 12.8733 27.2609 14.06ZM33.5417 7.14C33.7817 7.58 34.0551 8.12667 34.3617 8.78C34.6817 9.42 35.0084 10.12 35.3417 10.88C35.6884 11.6267 36.0284 12.3933 36.3617 13.18C36.6951 13.9667 37.0084 14.7067 37.3017 15.4C37.5951 14.7067 37.9084 13.9667 38.2417 13.18C38.5751 12.3933 38.9084 11.6267 39.2417 10.88C39.5884 10.12 39.9151 9.42 40.2217 8.78C40.5417 8.12667 40.8217 7.58 41.0617 7.14H43.9017C44.0351 8.06 44.1551 9.09333 44.2617 10.24C44.3817 11.3733 44.4817 12.56 44.5617 13.8C44.6551 15.0267 44.7351 16.26 44.8017 17.5C44.8817 18.74 44.9484 19.9067 45.0017 21H41.9617C41.9217 19.6533 41.8684 18.1867 41.8017 16.6C41.7351 15.0133 41.6351 13.4133 41.5017 11.8C41.2617 12.36 40.9951 12.98 40.7017 13.66C40.4084 14.34 40.1151 15.02 39.8217 15.7C39.5417 16.38 39.2684 17.0333 39.0017 17.66C38.7351 18.2733 38.5084 18.8 38.3217 19.24H36.1417C35.9551 18.8 35.7284 18.2733 35.4617 17.66C35.1951 17.0333 34.9151 16.38 34.6217 15.7C34.3417 15.02 34.0551 14.34 33.7617 13.66C33.4684 12.98 33.2017 12.36 32.9617 11.8C32.8284 13.4133 32.7284 15.0133 32.6617 16.6C32.5951 18.1867 32.5417 19.6533 32.5017 21H29.4617C29.5151 19.9067 29.5751 18.74 29.6417 17.5C29.7217 16.26 29.8017 15.0267 29.8817 13.8C29.9751 12.56 30.0751 11.3733 30.1817 10.24C30.3017 9.09333 30.4284 8.06 30.5617 7.14H33.5417ZM51.9709 6.98C54.0376 6.98 55.6243 7.34667 56.7309 8.08C57.8376 8.8 58.3909 9.98667 58.3909 11.64C58.3909 13.3067 57.8309 14.5133 56.7109 15.26C55.5909 15.9933 53.9909 16.36 51.9109 16.36H50.9309V21H47.8109V7.34C48.4909 7.20667 49.2109 7.11333 49.9709 7.06C50.7309 7.00667 51.3976 6.98 51.9709 6.98ZM52.1709 9.64C51.9443 9.64 51.7176 9.64667 51.4909 9.66C51.2776 9.67333 51.0909 9.68667 50.9309 9.7V13.7H51.9109C52.9909 13.7 53.8043 13.5533 54.3509 13.26C54.8976 12.9667 55.1709 12.42 55.1709 11.62C55.1709 11.2333 55.0976 10.9133 54.9509 10.66C54.8176 10.4067 54.6176 10.2067 54.3509 10.06C54.0976 9.9 53.7843 9.79333 53.4109 9.74C53.0376 9.67333 52.6243 9.64 52.1709 9.64ZM66.102 21.28C65.1287 21.28 64.2887 21.1467 63.582 20.88C62.8754 20.6 62.2887 20.22 61.822 19.74C61.3687 19.2467 61.0287 18.6667 60.802 18C60.5887 17.32 60.482 16.5733 60.482 15.76V7.14H63.602V15.5C63.602 16.06 63.662 16.54 63.782 16.94C63.9154 17.3267 64.0887 17.6467 64.302 17.9C64.5287 18.14 64.7954 18.3133 65.102 18.42C65.422 18.5267 65.7687 18.58 66.142 18.58C66.902 18.58 67.5154 18.3467 67.982 17.88C68.462 17.4133 68.702 16.62 68.702 15.5V7.14H71.822V15.76C71.822 16.5733 71.7087 17.32 71.482 18C71.2554 18.68 70.9087 19.2667 70.442 19.76C69.9754 20.24 69.382 20.6133 68.662 20.88C67.942 21.1467 67.0887 21.28 66.102 21.28ZM85.1027 7.14V9.8H80.9227V21H77.8027V9.8H73.6227V7.14H85.1027ZM87.1078 21V7.14H96.4678V9.76H90.2278V12.48H95.7678V15.04H90.2278V18.38H96.9278V21H87.1078ZM103.297 6.98C105.377 6.98 106.97 7.35333 108.077 8.1C109.183 8.83333 109.737 9.98 109.737 11.54C109.737 12.5133 109.51 13.3067 109.057 13.92C108.617 14.52 107.977 14.9933 107.137 15.34C107.417 15.6867 107.71 16.0867 108.017 16.54C108.323 16.98 108.623 17.4467 108.917 17.94C109.223 18.42 109.517 18.9267 109.797 19.46C110.077 19.98 110.337 20.4933 110.577 21H107.077C106.823 20.5467 106.563 20.0867 106.297 19.62C106.043 19.1533 105.777 18.7 105.497 18.26C105.23 17.82 104.963 17.4067 104.697 17.02C104.43 16.62 104.163 16.26 103.897 15.94H102.357V21H99.2367V7.34C99.9167 7.20667 100.617 7.11333 101.337 7.06C102.07 7.00667 102.723 6.98 103.297 6.98ZM103.477 9.64C103.25 9.64 103.043 9.64667 102.857 9.66C102.683 9.67333 102.517 9.68667 102.357 9.7V13.46H103.237C104.41 13.46 105.25 13.3133 105.757 13.02C106.263 12.7267 106.517 12.2267 106.517 11.52C106.517 10.84 106.257 10.36 105.737 10.08C105.23 9.78667 104.477 9.64 103.477 9.64Z" fill="white"/>
</svg>
